<?xml version="1.0" encoding="UTF-8"?>
<svg version="1.1" xmlns="http://www.w3.org/2000/svg" width="500" height="500">
<path d="M0 0 C9.09427979 7.44714627 14.69873238 16.01913935 17.02734375 27.66015625 C17.74102285 36.38086982 16.32555832 44.14099191 14.08984375 52.53515625 C13.73921953 53.89199328 13.38932235 55.24901833 13.04003906 56.60620117 C8.76243639 73.08594407 4.16965734 89.48549598 -0.35613441 105.89839172 C-6.48410032 128.12326226 -12.47896641 150.38199898 -18.41015625 172.66015625 C-18.626292 173.47175831 -18.84242775 174.28336037 -19.06511307 175.11955643 C-23.97694849 193.56478762 -28.86870588 212.0150859 -33.70220947 230.48101807 C-38.53167694 248.91681567 -43.51466891 267.31203296 -48.49780273 285.70678711 C-49.04772502 287.73707279 -49.59762835 289.76736361 -50.14750099 291.79766273 C-50.51271634 293.14612425 -50.87797996 294.49457268 -51.24329185 295.84300804 C-53.47428337 304.08044387 -55.68554629 312.32278698 -57.86686707 320.57354736 C-59.03964476 325.00835947 -60.21988849 329.44116856 -61.40072632 333.87384033 C-61.94158586 335.91297297 -62.4786583 337.9531145 -63.0116272 339.99432373 C-70.74309057 369.59361728 -70.74309057 369.59361728 -85.28125 378.7421875 C-96.95689654 385.26191253 -108.00202191 385.89174774 -120.97265625 382.66015625 C-132.42105 377.98527486 -140.08948757 370.981232 -145.28515625 359.84765625 C-145.97265625 357.66015625 -145.97265625 357.66015625 -145.97265625 354.66015625 C-146.63265625 354.33015625 -147.29265625 354.00015625 -147.97265625 353.66015625 C-149.48964191 345.41566898 -149.35913155 337.42911199 -146.57421875 329.51171875 C-144.97770234 324.80324262 -143.75662962 320.0545207 -142.59765625 315.22265625 C-140.96847904 308.56743939 -139.26384982 301.94397224 -137.41015625 295.34765625 C-137.20076416 294.60225586 -136.99137207 293.85685547 -136.77563477 293.08886719 C-136.36577536 291.63051904 -135.95586473 290.17218529 -135.54589844 288.71386719 C-133.46231833 281.24918411 -131.51266798 273.74752765 -129.56640625 266.24609375 C-127.00821208 256.38961917 -124.41675042 246.54870412 -121.65869141 236.74609375 C-120.50436769 232.6284736 -119.41937876 228.5039167 -118.41015625 224.34765625 C-117.4112207 220.25032737 -116.24424408 216.24375286 -114.97265625 212.22265625 C-113.64577948 207.99667892 -112.49655182 203.79622052 -111.53515625 199.47265625 C-110.39318405 194.33992099 -109.08126007 189.28315877 -107.66015625 184.22265625 C-107.44883057 183.47008545 -107.23750488 182.71751465 -107.01977539 181.94213867 C-106.5725516 180.35180757 -106.12503306 178.76155934 -105.67724609 177.17138672 C-102.54207195 165.99730452 -99.47199947 154.81080755 -96.72265625 143.53515625 C-94.43091756 134.20450587 -91.84600389 124.96129797 -89.24789429 115.71264648 C-85.81227095 103.46189482 -82.48956363 91.18206547 -79.203125 78.890625 C-78.99238594 78.10247343 -78.78164688 77.31432186 -78.56452179 76.50228691 C-76.41023093 68.44291605 -74.26031119 60.38238437 -72.1141119 52.32085514 C-71.29527028 49.24607403 -70.47530813 46.17159229 -69.65520668 43.09714699 C-69.08689135 40.96455556 -68.52035715 38.83149649 -67.9539032 36.69841003 C-60.00798491 6.84931264 -60.00798491 6.84931264 -45.625 -1.7421875 C-31.13544133 -9.46845913 -13.64373886 -10.04159443 0 0 Z " fill="#4586F4" transform="translate(205.97265625,61.33984375)"/>
<path d="M0 0 C8.56716143 6.2878249 14.43803513 15.16107589 17.1875 25.375 C18.79499002 39.53799852 15.12837999 52.34514258 11.375 65.875 C10.78127666 68.07492043 10.18950748 70.27536912 9.59960938 72.47631836 C8.39839864 76.94550911 7.1855749 81.41128272 5.96240234 85.87451172 C4.29574226 91.96203821 2.6666443 98.05897693 1.05078125 104.16015625 C-3.05328483 119.62346328 -7.22966396 135.0456572 -11.8125 150.375 C-40.00480005 152.09785275 -68.62898564 152.35279048 -96.8125 150.375 C-96.24789539 145.05242534 -95.32455814 140.07724804 -93.8125 134.9375 C-93.36857793 133.38446101 -92.92599387 131.83103924 -92.484375 130.27734375 C-92.22849609 129.37999512 -91.97261719 128.48264648 -91.70898438 127.55810547 C-89.99388031 121.46836505 -88.33907923 115.36199063 -86.67724609 109.25753784 C-86.06825745 107.02114314 -85.45807488 104.78507703 -84.84765625 102.54907227 C-84.46609625 101.14991587 -84.0845838 99.75074649 -83.703125 98.3515625 C-83.19313965 96.48105225 -83.19313965 96.48105225 -82.67285156 94.57275391 C-81.72770725 91.0598424 -80.85253359 87.55217431 -80.05078125 84.00390625 C-78.04351482 75.14161471 -75.72433386 66.41713585 -73.171875 57.69677734 C-70.8537013 49.70111667 -68.83715495 41.64163467 -66.90478516 33.54467773 C-63.51610841 19.57379668 -58.84009461 7.87618549 -46.5625 -0.4375 C-31.84355348 -9.23272316 -14.7106637 -8.89717117 0 0 Z " fill="#35A853" transform="translate(424.8125,60.625)"/>
<path d="M0 0 C1.17280014 0.00539291 1.17280014 0.00539291 2.36929321 0.01089478 C3.18873917 0.01074875 4.00818512 0.01060272 4.85246277 0.01045227 C7.57416385 0.01115164 10.29579737 0.01894515 13.01748657 0.02676392 C14.89935773 0.02862801 16.78122938 0.03005195 18.6631012 0.03105164 C23.62631561 0.0348775 28.58950096 0.04470836 33.55270386 0.05575562 C38.61322639 0.06596827 43.67375359 0.07054894 48.73428345 0.07559204 C58.67114521 0.08633057 68.60798535 0.10340781 78.54483032 0.12442017 C77.98864914 5.13905417 77.22271781 9.85759929 75.90933228 14.74087524 C75.40589546 16.62788147 75.40589546 16.62788147 74.89228821 18.55300903 C74.52267879 19.91668798 74.15294964 21.28033447 73.78311157 22.64395142 C73.3961416 24.08617571 73.0096217 25.52852083 72.6235199 26.97097778 C71.58898606 30.82998506 70.54762397 34.68711597 69.50434113 38.54376602 C68.63957815 41.74233873 67.77778607 44.94170898 66.91588974 48.14105511 C64.96024123 55.39983057 62.9991487 62.65711784 61.03457642 69.91348267 C59.1214552 76.98064672 57.2231231 84.05164084 55.33253479 91.12486267 C54.07688849 95.81584573 52.81222298 100.5043583 51.54467773 105.19213867 C50.96681239 107.33542303 50.39238396 109.47963735 49.82159424 111.62481689 C49.03371363 114.58194927 48.23242359 117.53513077 47.42764282 120.48770142 C47.09745903 121.74556458 47.09745903 121.74556458 46.76060486 123.02883911 C44.50466674 131.19495278 41.29267832 139.15506387 35.04483032 145.06192017 C34.31264282 145.7721936 33.58045532 146.48246704 32.82608032 147.21426392 C26.96200824 152.12442017 26.96200824 152.12442017 23.54483032 152.12442017 C23.21483032 152.78442017 22.88483032 153.44442017 22.54483032 154.12442017 C11.74338218 157.5126386 -1.51042266 158.05907108 -12.00204468 153.44082642 C-22.89128582 147.59739606 -30.4088151 140.05051786 -34.45516968 128.12442017 C-37.64850933 116.68958715 -35.10004415 106.94374825 -32.20516968 95.68692017 C-31.89233032 94.45223999 -31.57949097 93.21755981 -31.25717163 91.94546509 C-29.2907893 84.23336289 -27.25843962 76.54187336 -25.05380249 68.89419556 C-24.08428921 65.51325229 -23.22934493 62.13866365 -22.50595093 58.69863892 C-21.68085075 54.88199255 -20.53586406 51.27232069 -19.26278687 47.58486938 C-17.6533281 42.68156666 -16.39852469 37.67468438 -15.08016968 32.68692017 C-14.46604982 30.38731718 -13.85146373 28.08783865 -13.23641968 25.78848267 C-12.93606812 24.66345337 -12.63571655 23.53842407 -12.32626343 22.37930298 C-11.0925168 17.7693506 -9.84469517 13.16351989 -8.58016968 8.56192017 C-8.27587036 7.43862305 -8.27587036 7.43862305 -7.96542358 6.29263306 C-6.34275783 0.41274874 -6.15009062 0.01193836 0 0 Z " fill="#DD503F" transform="translate(312.4551696777344,288.8755798339844)"/>
<path d="M0 0 C8.69480663 6.18609002 15.29879399 15.82168886 17.3125 26.375 C18.27727563 40.41960266 16.56708358 51.24349091 7.3125 62.4140625 C5.38366008 64.30522976 3.78991564 65.34643012 1.3125 66.375 C1.3125 67.035 1.3125 67.695 1.3125 68.375 C-9.10515925 73.86680427 -19.84812165 78.11443213 -31.84375 75.75390625 C-45.99195231 71.35994136 -55.51302783 63.40791691 -62.6875 50.375 C-66.19280474 39.12112688 -66.41592308 26.75230791 -61.2265625 16.0546875 C-55.09613195 5.38089218 -46.63710661 -2.09332985 -34.8046875 -5.96484375 C-22.26476475 -8.62054168 -10.95753548 -6.55961308 0 0 Z " fill="#FABE0D" transform="translate(273.6875,215.625)"/>
<path d="M0 0 C3.47812799 3.03970849 4.89206025 5.60286177 6.25 10 C6.75273437 11.546875 6.75273437 11.546875 7.265625 13.125 C9.16787786 23.16241935 7.66068315 32.11991916 5.0625 41.875 C4.71187578 43.23183703 4.3619786 44.58886208 4.01269531 45.94604492 C-0.26490736 62.42578782 -4.85768641 78.82533973 -9.38347816 95.23823547 C-15.51144407 117.46310601 -21.50631016 139.72184273 -27.4375 162 C-27.65363575 162.81160206 -27.8697715 163.62320412 -28.09245682 164.45940018 C-33.00429224 182.90463137 -37.89604963 201.35492965 -42.72955322 219.82086182 C-47.55902069 238.25665942 -52.54201266 256.65187671 -57.52514648 275.04663086 C-58.07506877 277.07691654 -58.6249721 279.10720736 -59.17484474 281.13750648 C-59.54006009 282.485968 -59.90532371 283.83441643 -60.2706356 285.18285179 C-62.50162712 293.42028762 -64.71289004 301.66263073 -66.89421082 309.91339111 C-68.06698851 314.34820322 -69.24723224 318.78101231 -70.42807007 323.21368408 C-70.96892961 325.25281672 -71.50600205 327.29295825 -72.03897095 329.33416748 C-78.76596133 355.08791596 -78.76596133 355.08791596 -86 360 C-85.0118532 357.98757295 -84.0045253 356.00790215 -82.89015198 354.06196594 C-78.33452642 345.7847829 -76.26487219 336.86994018 -73.90234375 327.79296875 C-73.42353472 325.9866677 -72.94373998 324.18062769 -72.46302795 322.37483215 C-71.1971147 317.60906376 -69.94421764 312.8399696 -68.69421387 308.07000732 C-67.46572532 303.3903954 -66.2257239 298.713842 -64.98632812 294.03710938 C-63.24433413 287.45941655 -61.50608814 280.88075377 -59.77261257 274.30081081 C-51.04924478 241.18880445 -42.16379298 208.11986184 -33.26611328 175.05435181 C-30.54450985 164.94025386 -27.82510676 154.82556408 -25.10546875 144.7109375 C-24.8384956 143.71808306 -24.57152245 142.72522861 -24.2964592 141.70228767 C-20.98251646 129.37781921 -17.67017558 117.05292419 -14.36328125 104.7265625 C-14.0256073 103.46821594 -13.68793335 102.20986938 -13.34002686 100.91339111 C-11.79771366 95.16306304 -10.2590986 89.41179523 -8.72900391 83.65820312 C-8.17234791 81.56636702 -7.61554926 79.47456888 -7.05859375 77.3828125 C-6.79709534 76.40068787 -6.53559692 75.41856323 -6.26617432 74.40667725 C-4.59850773 68.16887772 -2.86610315 61.95207794 -1.09765625 55.7421875 C6.85677067 31.08033808 6.85677067 31.08033808 1.91967773 6.76611328 C0.77520477 4.56831199 0.30619611 2.44956889 0 0 Z " fill="#D2E2FB" transform="translate(215,72)"/>
<path d="M0 0 C1.1375499 3.38865167 0.8448199 5.5459355 -0.07299805 8.97241211 C-0.33506546 9.96958252 -0.59713287 10.96675293 -0.86714172 11.99414062 C-1.16235214 13.07759766 -1.45756256 14.16105469 -1.76171875 15.27734375 C-2.06389816 16.41631104 -2.36607758 17.55527832 -2.67741394 18.72875977 C-3.67167758 22.46750053 -4.67944754 26.2024557 -5.6875 29.9375 C-6.374058 32.50767212 -7.05988268 35.07802754 -7.74462891 37.64868164 C-9.14022167 42.88314437 -10.54195053 48.11592716 -11.94775391 53.34765625 C-13.86027386 60.4670827 -15.75154349 67.59203952 -17.63671875 74.71875 C-18.45613128 77.81202006 -19.27588835 80.90519851 -20.09585571 83.99832153 C-20.6145103 85.95485054 -21.13288274 87.91145436 -21.65097046 89.86813354 C-22.36659207 92.56765092 -23.08515692 95.26636605 -23.8046875 97.96484375 C-24.01441696 98.75793945 -24.22414642 99.55103516 -24.44023132 100.36816406 C-25.88536117 105.77072234 -25.88536117 105.77072234 -27 108 C-55.1581249 109.84643442 -83.8492585 109.97549063 -112 108 C-111.40602795 102.17247419 -110.26369067 96.80396547 -108.625 91.1875 C-108.17558708 89.61073241 -107.72636807 88.03390954 -107.27734375 86.45703125 C-106.95032471 85.31935303 -106.95032471 85.31935303 -106.61669922 84.15869141 C-105.78215802 81.23746682 -104.98236127 78.30723943 -104.1875 75.375 C-103.95417969 74.51648438 -103.72085937 73.65796875 -103.48046875 72.7734375 C-103.32191406 72.18820313 -103.16335938 71.60296875 -103 71 C-102.67 71 -102.34 71 -102 71 C-101.48853527 78.79983709 -103.15737782 83.70137548 -106 91 C-107.65 96.28 -109.3 101.56 -111 107 C-83.61 107 -56.22 107 -28 107 C-27.67 104.36 -27.34 101.72 -27 99 C-26.60535197 97.22612802 -26.17004608 95.46053171 -25.68408203 93.70947266 C-25.28642639 92.25987404 -25.28642639 92.25987404 -24.8807373 90.7809906 C-24.59267212 89.75240433 -24.30460693 88.72381805 -24.0078125 87.6640625 C-23.70572876 86.56703506 -23.40364502 85.47000763 -23.09240723 84.33973694 C-22.44408084 81.98678387 -21.79335281 79.63449145 -21.14044189 77.2828064 C-19.42598907 71.10703551 -17.72864857 64.92656997 -16.03125 58.74609375 C-15.68985992 57.50432877 -15.34846985 56.26256378 -14.99673462 54.98316956 C-11.28783891 41.4610135 -7.74466679 27.89678174 -4.23876953 14.32080078 C-4.02442261 13.4937413 -3.81007568 12.66668182 -3.5892334 11.81455994 C-3.1931636 10.28545154 -2.79906517 8.75583056 -2.40734863 7.2256012 C-1.11196243 2.22392486 -1.11196243 2.22392486 0 0 Z " fill="#D6EDDC" transform="translate(440,103)"/>
<path d="M0 0 C8.42082023 6.18041852 14.73370759 15.20270564 17.1875 25.375 C17.70860914 31.04158874 17.48998703 36.70168764 17.1875 42.375 C16.8575 42.375 16.5275 42.375 16.1875 42.375 C16.16171875 41.41980469 16.1359375 40.46460938 16.109375 39.48046875 C15.57448784 27.28747289 13.47333582 16.09805789 4.1875 7.375 C3.60871094 6.74078125 3.02992188 6.1065625 2.43359375 5.453125 C-0.14276371 3.06943428 -2.66015236 1.72032904 -5.8125 0.1875 C-6.84375 -0.32167969 -7.875 -0.83085938 -8.9375 -1.35546875 C-16.83506898 -4.84284636 -28.98539069 -5.39687337 -37.25 -2.5 C-39.01798482 -1.68228837 -39.01798482 -1.68228837 -40.8125 -0.625 C-41.66585937 -0.16480469 -42.51921875 0.29539062 -43.3984375 0.76953125 C-47.81381642 3.26820557 -50.79655171 5.28003209 -53.8125 9.375 C-54.4725 9.375 -55.1325 9.375 -55.8125 9.375 C-56.24956772 10.47689919 -56.24956772 10.47689919 -56.69546509 11.60105896 C-57.35969289 13.25054076 -58.0367528 14.89509266 -58.74081421 16.52796936 C-61.58901463 23.25476131 -63.50233949 30.12688492 -65.32262039 37.19314384 C-65.86351959 39.29250204 -66.41252374 41.38960105 -66.96347046 43.48634338 C-68.12863691 47.92654275 -69.28356671 52.36937038 -70.4375 56.8125 C-71.78294641 61.9899158 -73.13262715 67.16617101 -74.49140549 72.34010506 C-75.03118355 74.40347545 -75.56404409 76.46855089 -76.09658813 78.53379822 C-76.42387909 79.78262283 -76.75117004 81.03144745 -77.08837891 82.31811523 C-77.37387604 83.41824448 -77.65937317 84.51837372 -77.95352173 85.65184021 C-78.8125 88.375 -78.8125 88.375 -80.8125 91.375 C-81.93360108 88.01169675 -81.72994967 87.48727403 -80.54296875 84.3203125 C-78.77900814 79.35723693 -77.42711373 74.35120054 -76.125 69.25 C-75.87516357 68.28441162 -75.62532715 67.31882324 -75.36791992 66.32397461 C-73.9928859 61.00264713 -72.63418822 55.67721665 -71.28108215 50.35028076 C-70.5729807 47.56556321 -69.86159361 44.78168916 -69.1499939 41.99786377 C-68.63527081 39.97780829 -68.12578251 37.95648008 -67.61645508 35.93505859 C-63.46154054 19.66399161 -58.69068217 6.80962659 -43.69921875 -2.1484375 C-29.60409447 -9.35812218 -13.48419846 -8.15539151 0 0 Z " fill="#DCEFE3" transform="translate(424.8125,60.625)"/>
<path d="M0 0 C0.33 0 0.66 0 1 0 C1.51146473 7.79983709 -0.15737782 12.70137548 -3 20 C-4.65 25.28 -6.3 30.56 -8 36 C19.39 36 46.78 36 75 36 C75.33 34.68 75.66 33.36 76 32 C76 33.65 76 35.3 76 37 C47.8418751 38.84643442 19.1507415 38.97549063 -9 37 C-8.40602795 31.17247419 -7.26369067 25.80396547 -5.625 20.1875 C-5.17558708 18.61073241 -4.72636807 17.03390954 -4.27734375 15.45703125 C-4.05933105 14.6985791 -3.84131836 13.94012695 -3.61669922 13.15869141 C-2.78215802 10.23746682 -1.98236127 7.30723943 -1.1875 4.375 C-0.95417969 3.51648438 -0.72085937 2.65796875 -0.48046875 1.7734375 C-0.32191406 1.18820313 -0.16335938 0.60296875 0 0 Z " fill="#D0EBD8" transform="translate(337,174)"/>
<path d="M0 0 C27.72 0 55.44 0 84 0 C83.67 0.66 83.34 1.32 83 2 C56.27 1.67 29.54 1.34 2 1 C1.34 4.63 0.68 8.26 0 12 C-0.99 12.99 -1.98 13.98 -3 15 C-2.430756 9.59218201 -1.53371845 5.36801456 0 0 Z " fill="#E15E4E" transform="translate(306,290)"/>
<path d="M0 0 C0.763125 0.5775 1.52625 1.155 2.3125 1.75 C-1.46370904 1.75 -3.71648927 0.39488648 -7.04296875 -1.27734375 C-13.64181425 -3.70439328 -20.7522089 -3.38174638 -27.6875 -3.3125 C-28.55761719 -3.30798828 -29.42773438 -3.30347656 -30.32421875 -3.29882812 C-32.44534293 -3.2871736 -34.5664311 -3.26924357 -36.6875 -3.25 C-28.23661663 -11.70088337 -8.44988823 -5.48948656 0 0 Z " fill="#FCE5A2" transform="translate(272.6875,215.25)"/>
<path d="M0 0 C1.25912856 3.56892069 0.68119778 5.69005507 -0.4375 9.25 C-3.27892865 19.86319011 -2.45475524 31.19324676 -1 42 C-1.66 41.34 -2.32 40.68 -3 40 C-3 39.01 -3 38.02 -3 37 C-3.66 36.67 -4.32 36.34 -5 36 C-6.73450833 26.57332428 -5.9415635 18.15485576 -2.765625 9.1875 C-1.70575137 6.15928963 -0.8551043 3.09153091 0 0 Z " fill="#BDD5FB" transform="translate(63,379)"/>
<path d="M0 0 C0.85609863 0.16298584 1.71219727 0.32597168 2.59423828 0.49389648 C5.95704412 0.99361666 9.09539294 1.11383146 12.4921875 1.09765625 C13.69101562 1.09443359 14.88984375 1.09121094 16.125 1.08789062 C17.3625 1.07951172 18.6 1.07113281 19.875 1.0625 C21.13570313 1.05798828 22.39640625 1.05347656 23.6953125 1.04882812 C26.79692386 1.0370796 29.89843725 1.02065167 33 1 C27.90280417 4.39813055 23.20287417 4.21109233 17.25 4.25 C16.08984375 4.2809375 16.08984375 4.2809375 14.90625 4.3125 C9.27861722 4.35026935 5.16391133 3.24005286 0 1 C0 0.67 0 0.34 0 0 Z " fill="#EC9E94" transform="translate(301,441)"/>
<path d="M0 0 C0.74121094 0.144375 1.48242188 0.28875 2.24609375 0.4375 C11.57351632 2.08150104 20.55601176 2.20358298 30 2 C25.55070128 4.52175033 21.69387094 4.3316815 16.6875 4.3125 C15.44323242 4.33666992 15.44323242 4.33666992 14.17382812 4.36132812 C8.68545721 4.36565991 4.89157063 3.50189645 0 1 C0 0.67 0 0.34 0 0 Z " fill="#FCD86D" transform="translate(231,286)"/>
<path d="M0 0 C0.66 0.33 1.32 0.66 2 1 C0.59106853 2.63171123 -0.82745958 4.25513945 -2.25 5.875 C-3.03890625 6.77992188 -3.8278125 7.68484375 -4.640625 8.6171875 C-6.74691403 10.74439993 -8.25651526 11.90512306 -11 13 C-8.72126867 7.61390776 -4.84467788 3.22978525 0 0 Z " fill="#FCE18E" transform="translate(226,216)"/>
<path d="M0 0 C3.87791279 0.56181775 6.40915326 1.65374504 9.625 3.875 C10.38039063 4.38804688 11.13578125 4.90109375 11.9140625 5.4296875 C13.80860456 6.85591579 15.47750864 8.18187924 17 10 C16.6875 12.1875 16.6875 12.1875 16 14 C15.64292969 13.26265625 15.28585937 12.5253125 14.91796875 11.765625 C12.58036955 8.39491169 9.80992558 6.72038061 6.3125 4.75 C4.191249 3.52368699 2.0916897 2.27709443 0 1 C0 0.67 0 0.34 0 0 Z " fill="#D0EAD9" transform="translate(415,57)"/>
<path d="M0 0 C2.58126776 2.25771052 3.58608908 4.1054183 4.5625 7.375 C5.57822319 10.65204377 6.67174017 13.83261118 8 17 C2.87480935 12.22827077 0.72616576 7.77188104 -1 1 C-0.67 0.67 -0.34 0.34 0 0 Z " fill="#FDEBBB" transform="translate(210,258)"/>
<path d="M0 0 C1.4857955 3.96212133 1.00143173 7.96859533 0 12 C-1.5625 14 -1.5625 14 -3 15 C-2.44854729 9.76119922 -1.57077907 5.02649303 0 0 Z " fill="#C0D6FB" transform="translate(67,364)"/>
<path d="M0 0 C0.33 0 0.66 0 1 0 C0.91284983 1.93833996 0.80467036 3.8757429 0.6875 5.8125 C0.62949219 6.89144531 0.57148438 7.97039062 0.51171875 9.08203125 C-0.03068507 12.17497517 -0.55289624 13.13022903 -3 15 C-2.44854729 9.76119922 -1.57077907 5.02649303 0 0 Z " fill="#F2BFB8" transform="translate(306,290)"/>
<path d="M0 0 C4.71403788 0.47939368 8.66579301 0.96834048 13 3 C12.34 3.66 11.68 4.32 11 5 C9.53932801 4.54917531 8.08151968 4.08906463 6.625 3.625 C5.81289062 3.36976563 5.00078125 3.11453125 4.1640625 2.8515625 C2 2 2 2 0 0 Z " fill="#B9D2FB" transform="translate(79,440)"/>
<path d="M0 0 C0.33 0 0.66 0 1 0 C1.3152595 5.98993047 0.68219822 9.63560356 -2 15 C-3.31534494 11.34142468 -2.65468309 8.91973519 -1.5625 5.25 C-1.27503906 4.26515625 -0.98757812 3.2803125 -0.69140625 2.265625 C-0.46324219 1.51796875 -0.23507813 0.7703125 0 0 Z " fill="#B7D0FB" transform="translate(96,256)"/>
<path d="M0 0 C0.33 0 0.66 0 1 0 C1.05447047 1.41623216 1.09300508 2.83308191 1.125 4.25 C1.14820313 5.03890625 1.17140625 5.8278125 1.1953125 6.640625 C0.9828378 9.20731941 0.28654105 10.7916067 -1 13 C-1.33 13 -1.66 13 -2 13 C-1.85769192 11.58297487 -1.71099254 10.1663904 -1.5625 8.75 C-1.48128906 7.96109375 -1.40007812 7.1721875 -1.31640625 6.359375 C-1.02365007 4.17635361 -0.57935581 2.1226818 0 0 Z " fill="#A0D7B0" transform="translate(337,174)"/>
<path d="M0 0 C0.33 0 0.66 0 1 0 C1.36923077 7.50769231 1.36923077 7.50769231 -0.5 10 C-0.995 10.33 -1.49 10.66 -2 11 C-3.13643966 7.59068103 -2.86747764 6.99664544 -1.5625 3.8125 C-1.13130859 2.73935547 -1.13130859 2.73935547 -0.69140625 1.64453125 C-0.46324219 1.10183594 -0.23507813 0.55914062 0 0 Z " fill="#BCD4FB" transform="translate(92,271)"/>
<path d="M0 0 C3.12270126 2.51830747 3.94523098 3.7261549 4.75 7.75 C4.8325 8.8225 4.915 9.895 5 11 C0 4.40909091 0 4.40909091 0 0 Z " fill="#BCD3FA" transform="translate(215,72)"/>
<path d="M0 0 C0.33 0 0.66 0 1 0 C1.36923077 7.50769231 1.36923077 7.50769231 -0.5 10 C-0.995 10.33 -1.49 10.66 -2 11 C-1.125 3.375 -1.125 3.375 0 0 Z " fill="#B9D2FA" transform="translate(138,99)"/>
</svg>
